<svg width="19" height="20" viewBox="0 0 19 20" fill="none" xmlns="http://www.w3.org/2000/svg">
<path d="M0 4.3C0 2.50866 0 1.61299 0.556497 1.0565C1.11299 0.5 2.00866 0.5 3.8 0.5C5.59134 0.5 6.48701 0.5 7.0435 1.0565C7.6 1.61299 7.6 2.50866 7.6 4.3V15.7C7.6 17.4913 7.6 18.387 7.0435 18.9435C6.48701 19.5 5.59134 19.5 3.8 19.5C2.00866 19.5 1.11299 19.5 0.556497 18.9435C0 18.387 0 17.4913 0 15.7V4.3Z" fill="white"/>
<path d="M11.4 4.3C11.4 2.50866 11.4 1.61299 11.9565 1.0565C12.513 0.5 13.4087 0.5 15.2 0.5C16.9913 0.5 17.887 0.5 18.4435 1.0565C19 1.61299 19 2.50866 19 4.3V15.7C19 17.4913 19 18.387 18.4435 18.9435C17.887 19.5 16.9913 19.5 15.2 19.5C13.4087 19.5 12.513 19.5 11.9565 18.9435C11.4 18.387 11.4 17.4913 11.4 15.7V4.3Z" fill="white"/>
</svg>
